<svg width="32" height="32" viewBox="0 0 32 32" fill="none" xmlns="http://www.w3.org/2000/svg">
<mask id="mask0_2_407" style="mask-type:alpha" maskUnits="userSpaceOnUse" x="0" y="0" width="32" height="32">
<rect width="32" height="32" fill="#D9D9D9"/>
</mask>
<g mask="url(#mask0_2_407)">
<path d="M26.2563 26H19.6409C19.6409 25.6666 19.6296 25.3333 19.6069 25C19.5843 24.6667 19.5503 24.3333 19.505 24H26.2563C26.3759 24 26.4742 23.9615 26.5512 23.8846C26.6281 23.8077 26.6666 23.7094 26.6666 23.5897V8.41031C26.6666 8.29064 26.6281 8.19234 26.5512 8.11541C26.4742 8.03847 26.3759 8.00001 26.2563 8.00001H5.74352C5.62385 8.00001 5.52555 8.03847 5.44862 8.11541C5.37169 8.19234 5.33322 8.29064 5.33322 8.41031V9.82824C4.99989 9.78293 4.66656 9.74895 4.33325 9.72631C3.99992 9.70366 3.66659 9.69234 3.33325 9.69234V8.41031C3.33325 7.74749 3.56926 7.18007 4.04129 6.70807C4.51329 6.23605 5.0807 6.00004 5.74352 6.00004H26.2563C26.9191 6.00004 27.4865 6.23605 27.9585 6.70807C28.4305 7.18007 28.6665 7.74749 28.6665 8.41031V23.5897C28.6665 24.2525 28.4305 24.8199 27.9585 25.2919C27.4865 25.764 26.9191 26 26.2563 26ZM3.33325 26V22.718C4.23923 22.718 5.01273 23.0385 5.65375 23.6795C6.29475 24.3205 6.61525 25.094 6.61525 26H3.33325ZM9.53835 26C9.53835 24.2837 8.93323 22.8248 7.72298 21.6231C6.51274 20.4214 5.0495 19.812 3.33325 19.7949V17.7949C5.61701 17.7949 7.55545 18.591 9.14859 20.1832C10.7417 21.7753 11.5383 23.7143 11.5383 26H9.53835ZM14.7179 26C14.7179 24.4204 14.4183 22.9409 13.8191 21.5615C13.22 20.182 12.4072 18.9791 11.3807 17.9525C10.3542 16.9261 9.1512 16.1132 7.77175 15.5141C6.39229 14.915 4.91279 14.6154 3.33325 14.6154V12.6154C5.18454 12.6154 6.9207 12.965 8.54172 13.664C10.1627 14.3631 11.5811 15.3205 12.7969 16.5363C14.0127 17.7521 14.9701 19.1705 15.6692 20.7915C16.3683 22.4125 16.7178 24.1487 16.7178 26H14.7179Z" fill="white"/>
</g>
</svg>
