<svg width="40" height="40" viewBox="0 0 40 40" fill="none" xmlns="http://www.w3.org/2000/svg">
<mask id="mask0_1_654" style="mask-type:alpha" maskUnits="userSpaceOnUse" x="0" y="0" width="40" height="40">
<rect width="40" height="40" fill="#D9D9D9"/>
</mask>
<g mask="url(#mask0_1_654)">
<path d="M21.2708 20L16.1458 25.125L18.3333 27.3542L25.6875 20L18.3333 12.6458L16.1458 14.875L21.2708 20ZM20 36.25C17.7526 36.25 15.6406 35.8227 13.664 34.9682C11.6873 34.1137 9.96792 32.954 8.50575 31.489C7.04358 30.0241 5.88542 28.3043 5.03125 26.3297C4.17708 24.355 3.75 22.2451 3.75 20C3.75 17.7526 4.17726 15.6406 5.03179 13.664C5.88632 11.6873 7.04604 9.96792 8.51096 8.50575C9.97587 7.04358 11.6957 5.88542 13.6703 5.03125C15.645 4.17708 17.7549 3.75 20 3.75C22.2474 3.75 24.3594 4.17726 26.336 5.03179C28.3127 5.88632 30.0321 7.04604 31.4943 8.51096C32.9564 9.97587 34.1146 11.6957 34.9688 13.6703C35.8229 15.645 36.25 17.7549 36.25 20C36.25 22.2474 35.8227 24.3594 34.9682 26.336C34.1137 28.3127 32.954 30.0321 31.489 31.4943C30.0241 32.9564 28.3043 34.1146 26.3297 34.9688C24.355 35.8229 22.2451 36.25 20 36.25Z" fill="white"/>
</g>
</svg>
