<svg width="21" height="20" viewBox="0 0 21 20" fill="none" xmlns="http://www.w3.org/2000/svg">
<path d="M8.00008 2.5C5.69889 2.5 3.83341 4.36548 3.83341 6.66667C3.83341 8.96785 5.69889 10.8333 8.00008 10.8333C10.3013 10.8333 12.1667 8.96785 12.1667 6.66667C12.1667 4.36548 10.3013 2.5 8.00008 2.5ZM5.50008 6.66667C5.50008 5.28595 6.61937 4.16667 8.00008 4.16667C9.38079 4.16667 10.5001 5.28595 10.5001 6.66667C10.5001 8.04738 9.38079 9.16667 8.00008 9.16667C6.61937 9.16667 5.50008 8.04738 5.50008 6.66667Z" fill="white"/>
<path d="M14.5904 6.84857C14.356 6.72903 14.0966 6.66672 13.8334 6.66672V5.00005C14.3597 5.00005 14.8786 5.12464 15.3475 5.36371C15.3991 5.39004 15.45 5.41768 15.5001 5.44658C15.9046 5.68011 16.2561 5.99641 16.5312 6.37546C16.8403 6.80143 17.0442 7.29456 17.1261 7.81447C17.208 8.33439 17.1657 8.86631 17.0025 9.36671C16.8394 9.86711 16.56 10.3218 16.1873 10.6934C15.8147 11.0651 15.3593 11.3433 14.8585 11.5051C14.4128 11.6492 13.9424 11.6975 13.478 11.6477C13.4206 11.6415 13.3632 11.6338 13.3059 11.6247C12.7866 11.5414 12.2943 11.3365 11.8694 11.0266L11.8685 11.0259L12.8509 9.67964C13.0635 9.83476 13.3098 9.93731 13.5697 9.97895C13.8295 10.0206 14.0955 10.0001 14.3459 9.91919C14.5963 9.83826 14.824 9.69919 15.0103 9.51335C15.1967 9.32752 15.3363 9.1002 15.4179 8.85001C15.4995 8.59981 15.5207 8.33386 15.4797 8.07391C15.4388 7.81396 15.3368 7.56741 15.1822 7.35443C15.0277 7.14145 14.8249 6.9681 14.5904 6.84857Z" fill="white"/>
<path d="M17.1652 17.5C17.1652 17.0625 17.079 16.6292 16.9116 16.225C16.7441 15.8208 16.4987 15.4535 16.1893 15.1441C15.8799 14.8347 15.5126 14.5893 15.1084 14.4219C14.7042 14.2544 14.2709 14.1682 13.8334 14.1682V12.5C14.4018 12.5 14.9654 12.5969 15.5001 12.786C15.5831 12.8153 15.6653 12.8468 15.7468 12.8806C16.3535 13.1319 16.9047 13.5002 17.3689 13.9645C17.8332 14.4288 18.2015 14.98 18.4528 15.5866C18.4866 15.6681 18.5181 15.7504 18.5475 15.8333C18.7365 16.368 18.8334 16.9316 18.8334 17.5H17.1652Z" fill="white"/>
<path d="M13.8334 17.5H12.1667C12.1667 15.1988 10.3013 13.3333 8.00008 13.3333C5.69889 13.3333 3.83341 15.1988 3.83341 17.5H2.16675C2.16675 14.2783 4.77842 11.6667 8.00008 11.6667C11.2217 11.6667 13.8334 14.2783 13.8334 17.5Z" fill="white"/>
</svg>
