<svg width="18" height="18" viewBox="0 0 18 18" fill="none" xmlns="http://www.w3.org/2000/svg">
<mask id="mask0_2_214" style="mask-type:alpha" maskUnits="userSpaceOnUse" x="0" y="0" width="18" height="18">
<rect width="18" height="18" fill="#D9D9D9"/>
</mask>
<g mask="url(#mask0_2_214)">
<path d="M8.99998 15.1875C8.59373 15.1875 8.24841 15.0453 7.96404 14.7609C7.67966 14.4766 7.53748 14.1313 7.53748 13.725C7.53748 13.3188 7.67966 12.9734 7.96404 12.6891C8.24841 12.4047 8.59373 12.2625 8.99998 12.2625C9.40623 12.2625 9.75154 12.4047 10.0359 12.6891C10.3203 12.9734 10.4625 13.3188 10.4625 13.725C10.4625 14.1313 10.3203 14.4766 10.0359 14.7609C9.75154 15.0453 9.40623 15.1875 8.99998 15.1875ZM8.99998 10.4625C8.59373 10.4625 8.24841 10.3203 7.96404 10.0359C7.67966 9.75156 7.53748 9.40625 7.53748 9C7.53748 8.59375 7.67966 8.24844 7.96404 7.96406C8.24841 7.67969 8.59373 7.5375 8.99998 7.5375C9.40623 7.5375 9.75154 7.67969 10.0359 7.96406C10.3203 8.24844 10.4625 8.59375 10.4625 9C10.4625 9.40625 10.3203 9.75156 10.0359 10.0359C9.75154 10.3203 9.40623 10.4625 8.99998 10.4625ZM8.99998 5.7375C8.59373 5.7375 8.24841 5.59531 7.96404 5.31094C7.67966 5.02656 7.53748 4.68125 7.53748 4.275C7.53748 3.86875 7.67966 3.52344 7.96404 3.23906C8.24841 2.95469 8.59373 2.8125 8.99998 2.8125C9.40623 2.8125 9.75154 2.95469 10.0359 3.23906C10.3203 3.52344 10.4625 3.86875 10.4625 4.275C10.4625 4.68125 10.3203 5.02656 10.0359 5.31094C9.75154 5.59531 9.40623 5.7375 8.99998 5.7375Z" fill="white" fill-opacity="0.5"/>
</g>
</svg>
