<svg width="40" height="40" viewBox="0 0 40 40" fill="none" xmlns="http://www.w3.org/2000/svg">
<mask id="mask0_2_217" style="mask-type:alpha" maskUnits="userSpaceOnUse" x="0" y="0" width="40" height="40">
<rect width="40" height="40" fill="#D9D9D9"/>
</mask>
<g mask="url(#mask0_2_217)">
<path d="M15.8334 27.5L27.5 20L15.8334 12.5V27.5ZM20 36.6667C17.6945 36.6667 15.5278 36.2292 13.5 35.3542C11.4723 34.4792 9.70837 33.2917 8.20837 31.7917C6.70837 30.2917 5.52087 28.5278 4.64587 26.5C3.77087 24.4723 3.33337 22.3056 3.33337 20C3.33337 17.6945 3.77087 15.5278 4.64587 13.5C5.52087 11.4723 6.70837 9.70837 8.20837 8.20837C9.70837 6.70837 11.4723 5.52087 13.5 4.64587C15.5278 3.77087 17.6945 3.33337 20 3.33337C22.3056 3.33337 24.4723 3.77087 26.5 4.64587C28.5278 5.52087 30.2917 6.70837 31.7917 8.20837C33.2917 9.70837 34.4792 11.4723 35.3542 13.5C36.2292 15.5278 36.6667 17.6945 36.6667 20C36.6667 22.3056 36.2292 24.4723 35.3542 26.5C34.4792 28.5278 33.2917 30.2917 31.7917 31.7917C30.2917 33.2917 28.5278 34.4792 26.5 35.3542C24.4723 36.2292 22.3056 36.6667 20 36.6667Z" fill="white" fill-opacity="0.3"/>
</g>
</svg>
