<svg width="18" height="18" viewBox="0 0 18 18" fill="none" xmlns="http://www.w3.org/2000/svg">
<mask id="mask0_2_471" style="mask-type:alpha" maskUnits="userSpaceOnUse" x="0" y="0" width="18" height="18">
<rect width="18" height="18" fill="#D9D9D9"/>
</mask>
<g mask="url(#mask0_2_471)">
<path d="M13.4063 15.5625H5.3438V6.11252L10.4625 0.993774L11.3438 1.85627C11.425 1.95002 11.4922 2.06654 11.5454 2.20583C11.5985 2.34512 11.625 2.4786 11.625 2.60627V2.85002L10.8188 6.11252H15.6563C16.025 6.11252 16.3516 6.25471 16.636 6.53909C16.9204 6.82346 17.0625 7.15002 17.0625 7.51877V8.98236C17.0625 9.06774 17.0532 9.15921 17.0344 9.25679C17.0157 9.35436 16.9938 9.44378 16.9688 9.52503L14.7563 14.6813C14.65 14.9313 14.4672 15.1407 14.2079 15.3094C13.9485 15.4782 13.6813 15.5625 13.4063 15.5625ZM6.75005 14.1563H13.4438L15.6563 9.0094V7.51877H9.03755L10.0219 3.43127L6.75005 6.70315V14.1563ZM5.3438 6.11252V7.51877H3.11255V14.1563H5.3438V15.5625H1.7063V6.11252H5.3438Z" fill="white"/>
</g>
</svg>
