<svg width="18" height="18" viewBox="0 0 18 18" fill="none" xmlns="http://www.w3.org/2000/svg">
<mask id="mask0_2_468" style="mask-type:alpha" maskUnits="userSpaceOnUse" x="0" y="0" width="18" height="18">
<rect width="18" height="18" fill="#D9D9D9"/>
</mask>
<g mask="url(#mask0_2_468)">
<path d="M4.61255 2.49377H12.675V11.9438L7.5563 17.0625L6.67505 16.2C6.5938 16.1063 6.52661 15.9898 6.47349 15.8505C6.42036 15.7112 6.3938 15.5777 6.3938 15.45V15.2063L7.20005 11.9438H2.36255C1.9938 11.9438 1.66724 11.8016 1.38286 11.5172C1.09849 11.2328 0.956299 10.9063 0.956299 10.5375V9.07394C0.956299 8.98856 0.965674 8.89709 0.984424 8.79951C1.00317 8.70194 1.02505 8.61253 1.05005 8.53128L3.26255 3.37502C3.3688 3.12502 3.55161 2.91565 3.81099 2.7469C4.07036 2.57815 4.33755 2.49377 4.61255 2.49377ZM11.2688 3.90002H4.57505L2.36255 9.0469V10.5375H8.9813L7.99692 14.625L11.2688 11.3532V3.90002ZM12.675 11.9438V10.5375H14.9063V3.90002H12.675V2.49377H16.3125V11.9438H12.675Z" fill="white"/>
</g>
</svg>
