<svg width="24" height="24" viewBox="0 0 24 24" fill="none" xmlns="http://www.w3.org/2000/svg">
<mask id="mask0_2_484" style="mask-type:alpha" maskUnits="userSpaceOnUse" x="0" y="0" width="24" height="24">
<rect width="24" height="24" fill="#D9D9D9"/>
</mask>
<g mask="url(#mask0_2_484)">
<path d="M19.3241 21.9163L16.2683 18.8606C15.951 19.0638 15.6184 19.2411 15.2705 19.3927C14.9226 19.5442 14.561 19.6714 14.1857 19.774V18.3264C14.3748 18.2569 14.56 18.1854 14.7414 18.112C14.9228 18.0386 15.0972 17.9535 15.2645 17.8567L11.902 14.4942V18.5057L7.77509 14.3788H4.16454V9.62122H7.02897L2.21069 4.80294L3.20392 3.80969L20.3173 20.9231L19.3241 21.9163ZM18.6943 16.6115L17.6875 15.6048C18.035 15.077 18.3025 14.5075 18.49 13.8964C18.6775 13.2853 18.7712 12.6474 18.7712 11.9827C18.7712 10.5357 18.3507 9.23163 17.5097 8.07052C16.6687 6.9094 15.5607 6.09936 14.1857 5.64039V4.19137C15.9513 4.69412 17.3901 5.66083 18.5022 7.09149C19.6142 8.52217 20.1702 10.1526 20.1702 11.9827C20.1702 12.8402 20.0411 13.6606 19.7827 14.4436C19.5244 15.2267 19.1616 15.9494 18.6943 16.6115ZM15.8952 13.8125L14.1857 12.1029V8.39714C14.8517 8.75034 15.3775 9.24857 15.763 9.89184C16.1486 10.5351 16.3414 11.2378 16.3414 12C16.3414 12.327 16.3042 12.6408 16.2299 12.9416C16.1555 13.2424 16.044 13.5327 15.8952 13.8125ZM11.902 9.81927L9.74432 7.65199L11.902 5.49434V9.81927ZM10.503 15.1173V13.0952L8.42797 11.0202H5.56354V12.9798H8.35927L10.503 15.1173Z" fill="white" fill-opacity="0.5"/>
</g>
</svg>
