<svg width="32" height="32" viewBox="0 0 32 32" fill="none" xmlns="http://www.w3.org/2000/svg">
<mask id="mask0_2_481" style="mask-type:alpha" maskUnits="userSpaceOnUse" x="0" y="0" width="32" height="32">
<rect width="32" height="32" fill="#D9D9D9"/>
</mask>
<g mask="url(#mask0_2_481)">
<path d="M18.7179 26.8127V24.746C20.641 24.1341 22.1901 23.023 23.3653 21.4127C24.5405 19.8025 25.1282 17.9871 25.1282 15.9666C25.1282 13.9461 24.5405 12.1307 23.3653 10.5205C22.1901 8.91018 20.641 7.79907 18.7179 7.18712V5.12048C21.1999 5.78544 23.2221 7.11792 24.7845 9.11792C26.3469 11.1179 27.1281 13.4008 27.1281 15.9666C27.1281 18.5324 26.3469 20.8153 24.7845 22.8153C23.2221 24.8153 21.1999 26.1477 18.7179 26.8127ZM4.87183 19.3332V12.6666H9.82049L15.5384 6.94875V25.0511L9.82049 19.3332H4.87183ZM18.7179 20.8717V11.0615C19.6171 11.5504 20.3119 12.2388 20.8025 13.1269C21.2931 14.0149 21.5384 14.9726 21.5384 15.9999C21.5384 17.0136 21.291 17.9567 20.7961 18.8294C20.3012 19.702 19.6085 20.3828 18.7179 20.8717ZM13.5384 11.7999L10.6718 14.6666H6.87176V17.3333H10.6718L13.5384 20.1999V11.7999Z" fill="white" fill-opacity="0.5"/>
</g>
</svg>
